<?xml version="1.0" encoding="UTF-8"?>
<!DOCTYPE svg PUBLIC "-//W3C//DTD SVG 1.1//EN" "http://www.w3.org/Graphics/SVG/1.1/DTD/svg11.dtd">
<svg xmlns="http://www.w3.org/2000/svg" version="1.1" width="250px" height="250px" style="shape-rendering:geometricPrecision; text-rendering:geometricPrecision; image-rendering:optimizeQuality; fill-rule:evenodd; clip-rule:evenodd" xmlns:xlink="http://www.w3.org/1999/xlink">
<g><path style="opacity:1" fill="#0163b1" d="M -0.5,-0.5 C 82.8333,-0.5 166.167,-0.5 249.5,-0.5C 249.5,82.8333 249.5,166.167 249.5,249.5C 166.167,249.5 82.8333,249.5 -0.5,249.5C -0.5,166.167 -0.5,82.8333 -0.5,-0.5 Z"/></g>
<g><path style="opacity:1" fill="#f7fafc" d="M 157.5,77.5 C 156.566,78.5676 156.232,79.901 156.5,81.5C 158.415,81.7845 160.081,81.4511 161.5,80.5C 164.833,80.5 168.167,80.5 171.5,80.5C 171.215,78.712 171.548,77.0453 172.5,75.5C 175.084,76.3928 177.751,76.7261 180.5,76.5C 179.769,78.5988 179.769,80.5988 180.5,82.5C 195.243,89.3417 199.41,100.342 193,115.5C 191.207,118.295 189.04,120.795 186.5,123C 180.354,126.326 173.854,128.492 167,129.5C 165.007,127.182 163.841,124.516 163.5,121.5C 172.853,121.406 180.353,117.739 186,110.5C 189.96,101.097 187.294,94.4302 178,90.5C 174.815,95.8603 171.815,101.527 169,107.5C 161.557,120.637 150.39,126.47 135.5,125C 132.667,123.5 130.5,121.333 129,118.5C 125.262,106.133 128.762,96.2998 139.5,89C 142.564,87.1412 145.564,85.3079 148.5,83.5C 149.479,80.3752 149.813,77.0419 149.5,73.5C 142.5,73.5 135.5,73.5 128.5,73.5C 128.5,70.8333 128.5,68.1667 128.5,65.5C 135.833,65.5 143.167,65.5 150.5,65.5C 150.46,62.1194 150.793,58.7861 151.5,55.5C 154.127,56.0916 156.794,56.4249 159.5,56.5C 159.296,59.5176 158.963,62.5176 158.5,65.5C 170.181,65.566 181.848,65.2327 193.5,64.5C 193.5,67.1667 193.5,69.8333 193.5,72.5C 181.506,73.0235 169.506,73.3568 157.5,73.5C 157.5,74.8333 157.5,76.1667 157.5,77.5 Z"/></g>
<g><path style="opacity:1" fill="#f8fafc" d="M 57.5,63.5 C 62.1837,67.3486 67.017,71.0152 72,74.5C 87.5298,63.5861 102.696,64.0861 117.5,76C 105.198,73.3228 95.0313,76.8228 87,86.5C 90.3081,92.1524 94.8081,96.9857 100.5,101C 87.2071,102.498 73.8737,103.165 60.5,103C 60,102.5 59.5,102 59,101.5C 58.3986,88.8345 57.8986,76.1678 57.5,63.5 Z"/></g>
<g><path style="opacity:1" fill="#7aadd6" d="M 128.5,73.5 C 135.5,73.5 142.5,73.5 149.5,73.5C 149.813,77.0419 149.479,80.3752 148.5,83.5C 148.5,80.5 148.5,77.5 148.5,74.5C 141.646,74.824 134.979,74.4907 128.5,73.5 Z"/></g>
<g><path style="opacity:1" fill="#9fc3e1" d="M 157.5,77.5 C 157.5,78.5 157.5,79.5 157.5,80.5C 158.833,80.5 160.167,80.5 161.5,80.5C 160.081,81.4511 158.415,81.7845 156.5,81.5C 156.232,79.901 156.566,78.5676 157.5,77.5 Z"/></g>
<g><path style="opacity:1" fill="#1368b3" d="M 158.5,88.5 C 161.85,88.335 165.183,88.5017 168.5,89C 166.34,95.8214 163.007,101.988 158.5,107.5C 157.21,101.112 157.21,94.7782 158.5,88.5 Z"/></g>
<g><path style="opacity:1" fill="#1167b3" d="M 146.5,93.5 C 148.454,99.5981 149.788,106.098 150.5,113C 149.849,115.504 148.182,116.837 145.5,117C 136.804,118.842 133.637,115.342 136,106.5C 138.257,101.085 141.757,96.7513 146.5,93.5 Z"/></g>
<g><path style="opacity:1" fill="#f8fbfd" d="M 98.5,191.5 C 98.8076,189.076 98.4742,186.743 97.5,184.5C 96.8933,184.624 96.56,184.957 96.5,185.5C 89.1287,192.119 80.4621,194.286 70.5,192C 59.4093,186.318 55.5759,177.485 59,165.5C 62.7711,159.064 68.2711,154.897 75.5,153C 83.1398,151.599 90.8065,150.432 98.5,149.5C 97.4105,135.445 90.0772,130.611 76.5,135C 71.9003,137.215 67.7336,140.048 64,143.5C 63.3333,139.5 63.3333,135.5 64,131.5C 74.8994,123.765 86.3994,122.599 98.5,128C 102.928,131.092 105.761,135.259 107,140.5C 107.5,157.497 107.667,174.497 107.5,191.5C 104.5,191.5 101.5,191.5 98.5,191.5 Z"/></g>
<g><path style="opacity:1" fill="#f9fbfd" d="M 179.5,152.5 C 182.85,152.335 186.183,152.502 189.5,153C 190,153.5 190.5,154 191,154.5C 191.933,167.161 192.267,179.827 192,192.5C 187.645,188.644 183.145,184.977 178.5,181.5C 162.75,192.582 147.417,192.082 132.5,180C 144.284,182.012 154.451,178.846 163,170.5C 163.781,169.056 163.614,167.723 162.5,166.5C 158.315,162.481 153.982,158.647 149.5,155C 159.65,154.117 169.65,153.284 179.5,152.5 Z"/></g>
<g><path style="opacity:1" fill="#0d66b2" d="M 95.5,159.5 C 97.369,161.635 98.0356,164.302 97.5,167.5C 93.2595,182.516 84.0928,186.85 70,180.5C 64.6527,169.365 68.1527,162.865 80.5,161C 85.4636,160.088 90.4636,159.588 95.5,159.5 Z"/></g>
<g><path style="opacity:1" fill="#6ea5d2" d="M 95.5,159.5 C 96.209,158.596 97.209,158.263 98.5,158.5C 98.81,161.713 98.4767,164.713 97.5,167.5C 98.0356,164.302 97.369,161.635 95.5,159.5 Z"/></g>
<g><path style="opacity:1" fill="#5a99cc" d="M 96.5,185.5 C 96.56,184.957 96.8933,184.624 97.5,184.5C 98.4742,186.743 98.8076,189.076 98.5,191.5C 97.8333,189.5 97.1667,187.5 96.5,185.5 Z"/></g>
</svg>
